<svg xmlns="http://www.w3.org/2000/svg" viewBox="0 0 32 32">
  <!-- Background -->
  <rect width="32" height="32" rx="7" fill="#07111f"/>

  <!-- Stars -->
  <circle cx="4"  cy="5"  r="0.55" fill="white" opacity="0.35"/>
  <circle cx="27" cy="7"  r="0.5"  fill="white" opacity="0.28"/>
  <circle cx="28" cy="24" r="0.55" fill="white" opacity="0.3"/>
  <circle cx="5"  cy="27" r="0.45" fill="white" opacity="0.22"/>

  <!-- Contrail dots (lower-left → plane, 45° angle) -->
  <circle cx="7"    cy="26"   r="1.4" fill="#00b4d8" opacity="0.25"/>
  <circle cx="10.5" cy="22.5" r="1.2" fill="#00b4d8" opacity="0.42"/>
  <circle cx="14"   cy="19"   r="0.9" fill="#00b4d8" opacity="0.65"/>

  <!-- Plane — white, rotated -45° (taking off toward upper-right) -->
  <g transform="translate(19,13) rotate(-45) scale(0.55) translate(-10.5,-12)">
    <path d="M21 16v-2l-8-5V3.5c0-.83-.67-1.5-1.5-1.5S10 2.67 10 3.5V9l-8 5v2l8-2.5V19l-2 1.5V22l3.5-1 3.5 1v-1.5L13 19v-5.5l8 2.5z"
          fill="#ffffff"/>
  </g>
</svg>
